<svg xmlns="http://www.w3.org/2000/svg" width="24" height="24" viewBox="0 0 24 24" fill="none">
<path d="M24 12C24 5.37206 18.6279 0 12 0C5.37205 0 0 5.37206 0 12C0 17.9901 4.38575 22.9545 10.126 23.8553V15.4718H7.08164V12H10.126V9.35671C10.126 6.35178 11.9145 4.68822 14.6564 4.68822C15.9715 4.68822 17.3458 4.92493 17.3458 4.92493V7.87726H15.8334C14.3408 7.87726 13.8805 8.80438 13.8805 9.75123V12H17.2077L16.6751 15.4718H13.8805V23.8553C19.6142 22.9545 24 17.9901 24 12Z" fill="#1877F2"/>
<path d="M16.6685 15.4718L17.2011 12H13.874V9.75128C13.874 8.80443 14.3408 7.8773 15.8269 7.8773H17.3392V4.92497C17.3392 4.92497 15.9649 4.68826 14.6499 4.68826C11.9079 4.68826 10.1195 6.35182 10.1195 9.35676V12H7.07507V15.4718H10.1195V23.8554C10.731 23.954 11.3556 24 11.9934 24C12.6312 24 13.2559 23.9474 13.8674 23.8554V15.4718H16.6685Z" fill="white"/>
</svg>