<svg xmlns="http://www.w3.org/2000/svg" width="24" height="24" viewBox="0 0 24 24" fill="none">
                        <path
                            d="M12 0.53439C5.44219 0.468765 0.0703125 5.72814 0 12.286C0.0234375 17.3906 3.3375 21.9 8.20312 23.4469C8.80313 23.5547 9.02344 23.1938 9.02344 22.8797C9.02344 22.5656 9.02344 21.8672 9.02344 20.8828C5.68594 21.5906 4.97812 19.3125 4.97812 19.3125C4.75781 18.5953 4.28438 17.986 3.64688 17.5875C2.55469 16.8656 3.73594 16.8797 3.73594 16.8797C4.5 16.9828 5.175 17.4281 5.56875 18.0891C6.27188 19.3125 7.82344 19.7438 9.06094 19.0594C9.12188 18.4641 9.39375 17.9063 9.825 17.4891C7.1625 17.1938 4.36875 16.1906 4.36875 11.686C4.34531 10.5094 4.78125 9.37033 5.57812 8.51252C5.2125 7.5047 5.25469 6.39377 5.7 5.41408C5.7 5.41408 6.7125 5.09533 8.97187 6.61408C10.9359 6.08908 13.0078 6.08908 14.9719 6.61408C17.2641 5.09533 18.2438 5.41408 18.2438 5.41408C18.6844 6.39377 18.7266 7.5047 18.3656 8.51252C19.1859 9.35627 19.6406 10.486 19.6406 11.6672C19.6406 16.1813 16.8281 17.175 14.1844 17.4703C14.7703 18.0375 15.0703 18.8391 15.0047 19.65C15.0047 21.2203 15.0047 22.486 15.0047 22.8703C15.0047 23.25 15.225 23.5594 15.825 23.4375C20.6672 21.8766 23.9719 17.3813 24 12.286C23.9297 5.72814 18.5578 0.468765 12 0.53439Z"
                            fill="#231F20" />
                    </svg>