<svg xmlns="http://www.w3.org/2000/svg" width="24" height="24" viewBox="0 0 24 24" fill="none">
                        <path
                            d="M23.928 7.05598C23.8704 5.77918 23.664 4.90558 23.3712 4.14238C23.064 3.35518 22.656 2.68318 21.9888 2.02078C21.3216 1.35838 20.6544 0.940783 19.8672 0.638383C19.104 0.340783 18.2304 0.139183 16.9536 0.0815825C15.672 0.0239825 15.264 0.00958252 12.0096 0.00958252C8.7504 0.00958252 8.3424 0.0239825 7.0656 0.0815825C5.7888 0.139183 4.9152 0.345583 4.152 0.638383C3.36 0.945583 2.688 1.35358 2.0256 2.02078C1.3632 2.68798 0.945604 3.35518 0.643204 4.14238C0.350404 4.90558 0.144004 5.77918 0.0864043 7.05598C0.0288043 8.33758 0.0144043 8.74558 0.0144043 12C0.0144043 15.2592 0.0288043 15.6672 0.0864043 16.944C0.144004 18.2208 0.350404 19.0944 0.643204 19.8576C0.950404 20.6448 1.3584 21.3168 2.0256 21.9792C2.688 22.6464 3.36 23.0592 4.1472 23.3616C4.9104 23.6592 5.784 23.8608 7.0608 23.9184C8.3424 23.976 8.7504 23.9904 12.0048 23.9904C15.264 23.9904 15.672 23.976 16.9488 23.9184C18.2256 23.8608 19.0992 23.6544 19.8624 23.3616C20.6496 23.0544 21.3216 22.6464 21.984 21.9792C22.6464 21.312 23.064 20.6448 23.3664 19.8576C23.664 19.0944 23.8656 18.2208 23.9232 16.944C23.9808 15.6624 23.9952 15.2544 23.9952 12C23.9952 8.74558 23.9856 8.33278 23.928 7.05598ZM21.7728 16.848C21.72 18.0192 21.5232 18.6576 21.36 19.0752C21.144 19.632 20.88 20.0352 20.4576 20.4576C20.0352 20.88 19.6368 21.1344 19.0752 21.36C18.6528 21.5232 18.0144 21.72 16.848 21.7728C15.5856 21.8304 15.2064 21.8448 12 21.8448C8.7936 21.8448 8.4144 21.8304 7.152 21.7728C5.9808 21.72 5.3424 21.5232 4.9248 21.36C4.368 21.144 3.9648 20.88 3.5424 20.4576C3.12 20.0352 2.8656 19.6368 2.64 19.0752C2.4768 18.6528 2.28 18.0144 2.2272 16.848C2.1696 15.5856 2.1552 15.2064 2.1552 12C2.1552 8.79358 2.1696 8.41438 2.2272 7.15198C2.28 5.98078 2.4768 5.34238 2.64 4.92478C2.856 4.36798 3.12 3.96478 3.5424 3.54238C3.9648 3.11998 4.3632 2.86558 4.9248 2.63998C5.3472 2.47678 5.9856 2.27998 7.152 2.22718C8.4144 2.16958 8.7936 2.15518 12 2.15518C15.2064 2.15518 15.5856 2.16958 16.848 2.22718C18.0192 2.27998 18.6576 2.47678 19.0752 2.63998C19.632 2.85598 20.0352 3.11998 20.4576 3.54238C20.88 3.96478 21.1344 4.36318 21.36 4.92478C21.5232 5.34718 21.72 5.98558 21.7728 7.15198C21.8304 8.41438 21.8448 8.79358 21.8448 12C21.8448 15.2064 21.8256 15.5856 21.7728 16.848Z"
                            fill="url(#paint0_linear)" />
                        <path
                            d="M12 5.83679C8.59202 5.83679 5.83682 8.59679 5.83682 12C5.83682 15.408 8.59682 18.1632 12 18.1632C15.4032 18.1632 18.1632 15.3984 18.1632 12C18.1632 8.59199 15.408 5.83679 12 5.83679ZM12 15.9984C9.79202 15.9984 8.00162 14.208 8.00162 12C8.00162 9.79199 9.79202 8.00159 12 8.00159C14.208 8.00159 15.9984 9.79199 15.9984 12C15.9984 14.208 14.208 15.9984 12 15.9984Z"
                            fill="url(#paint1_linear)" />
                        <path
                            d="M18.4032 7.03681C19.1985 7.03681 19.8432 6.3921 19.8432 5.5968C19.8432 4.80151 19.1985 4.1568 18.4032 4.1568C17.6079 4.1568 16.9632 4.80151 16.9632 5.5968C16.9632 6.3921 17.6079 7.03681 18.4032 7.03681Z"
                            fill="#BC30A0" />
                        <path
                            d="M0 12C0 15.2592 0.0144 15.6672 0.072 16.944C0.1296 18.2208 0.336 19.0944 0.6288 19.8576C0.936 20.6448 1.344 21.3168 2.0112 21.9792C2.6736 22.6416 3.3456 23.0592 4.1328 23.3616C4.896 23.6592 5.7696 23.8608 7.0464 23.9184C8.328 23.976 8.736 23.9904 11.9904 23.9904C15.2496 23.9904 15.6576 23.976 16.9344 23.9184C18.2112 23.8608 19.0848 23.6544 19.848 23.3616C20.6352 23.0544 21.3072 22.6464 21.9696 21.9792C22.632 21.3168 23.0496 20.6448 23.352 19.8576C23.6496 19.0944 23.8512 18.2208 23.9088 16.944C23.9664 15.6624 23.9808 15.2544 23.9808 12C23.9808 8.74078 23.9664 8.33278 23.9088 7.05598C23.8512 5.77918 23.6448 4.90558 23.352 4.14238C23.0448 3.35518 22.6368 2.68318 21.9696 2.02078C21.312 1.35358 20.64 0.940783 19.8528 0.638383C19.0896 0.340783 18.216 0.139183 16.9392 0.0815825C15.6576 0.0239825 15.2496 0.00958252 11.9952 0.00958252C8.736 0.00958252 8.328 0.0239825 7.0512 0.0815825C5.7744 0.139183 4.9008 0.345583 4.1376 0.638383C3.3504 0.945583 2.6784 1.35358 2.016 2.02078C1.3536 2.68798 0.936 3.35518 0.6336 4.14238C0.336 4.90558 0.1296 5.77918 0.072 7.05598C0.0144 8.33278 0 8.74078 0 12ZM2.1648 12C2.1648 8.79838 2.1792 8.41438 2.2368 7.15198C2.2896 5.98078 2.4864 5.34238 2.6496 4.92478C2.8656 4.36798 3.1296 3.96478 3.552 3.54238C3.9744 3.11998 4.3728 2.86558 4.9344 2.63998C5.3568 2.47678 5.9952 2.27998 7.1616 2.22718C8.424 2.16958 8.8032 2.15518 12.0096 2.15518C15.216 2.15518 15.5952 2.16958 16.8576 2.22718C18.0288 2.27998 18.6672 2.47678 19.0848 2.63998C19.6416 2.85598 20.0448 3.11998 20.4672 3.54238C20.8896 3.96478 21.144 4.36318 21.3696 4.92478C21.5328 5.34718 21.7296 5.98558 21.7824 7.15198C21.84 8.41438 21.8544 8.79358 21.8544 12C21.8544 15.2064 21.84 15.5856 21.7824 16.848C21.7296 18.0192 21.5328 18.6576 21.3696 19.0752C21.1536 19.632 20.8896 20.0352 20.4672 20.4576C20.0448 20.88 19.6464 21.1344 19.0848 21.36C18.6624 21.5232 18.024 21.72 16.8576 21.7728C15.5952 21.8304 15.216 21.8448 12.0096 21.8448C8.8032 21.8448 8.424 21.8304 7.1616 21.7728C5.9904 21.72 5.352 21.5232 4.9344 21.36C4.3776 21.144 3.9744 20.88 3.552 20.4576C3.1296 20.0352 2.8752 19.6368 2.6496 19.0752C2.4864 18.6528 2.2896 18.0144 2.2368 16.848C2.1744 15.5856 2.1648 15.2016 2.1648 12Z"
                            fill="url(#paint2_linear)" />
                        <defs>
                            <linearGradient id="paint0_linear" x1="20.2914" y1="1.84332" x2="2.94496" y2="23.1089"
                                gradientUnits="userSpaceOnUse">
                                <stop stop-color="#AE3DAE" />
                                <stop offset="0.0468721" stop-color="#B23BA6" />
                                <stop offset="0.1216" stop-color="#BD368E" />
                                <stop offset="0.2148" stop-color="#CE2E69" />
                                <stop offset="0.3216" stop-color="#E62335" />
                                <stop offset="0.418" stop-color="#FF1800" />
                            </linearGradient>
                            <linearGradient id="paint1_linear" x1="14.9393" y1="7.05681" x2="8.63877" y2="17.6502"
                                gradientUnits="userSpaceOnUse">
                                <stop stop-color="#E12F6A" />
                                <stop offset="0.1705" stop-color="#EA3751" />
                                <stop offset="0.3563" stop-color="#F13D3E" />
                                <stop offset="0.5467" stop-color="#F64133" />
                                <stop offset="0.7469" stop-color="#F7422F" />
                                <stop offset="0.7946" stop-color="#F74C2F" />
                                <stop offset="0.8743" stop-color="#F7652F" />
                                <stop offset="0.9757" stop-color="#F78F2E" />
                                <stop offset="1" stop-color="#F79A2E" />
                            </linearGradient>
                            <linearGradient id="paint2_linear" x1="17.4346" y1="-0.977658" x2="6.82337" y2="24.331"
                                gradientUnits="userSpaceOnUse">
                                <stop offset="0.2341" stop-color="#9E35A5" stop-opacity="0" />
                                <stop offset="0.4512" stop-color="#D42F7F" stop-opacity="0.5" />
                                <stop offset="0.7524" stop-color="#F7772E" />
                                <stop offset="0.9624" stop-color="#FEF780" />
                            </linearGradient>
                        </defs>
                    </svg>