<svg xmlns="http://www.w3.org/2000/svg" width="24" height="24" viewBox="0 0 24 24" fill="none">
<path d="M19.6866 12C19.6866 13.5099 19.2263 14.9472 18.4439 16.1934L21.5803 19.3384C23.1518 17.2351 24 14.6835 24 12.0593C24 9.30328 23.0861 6.81098 21.5145 4.78021L18.4373 7.85933C19.2526 9.09229 19.6866 10.5231 19.6866 12Z" fill="#B8D3F4"/>
<path d="M11.9671 19.734C7.7063 19.7274 4.26082 16.2659 4.24767 12C4.25425 7.72746 7.7063 4.26593 11.9671 4.25933C13.5386 4.25933 14.9786 4.72087 16.1556 5.50549L19.2263 2.41978C17.1288 0.850548 14.5841 0 11.9671 0C5.3589 0 0 5.37362 0 12C0 18.6198 5.3589 24 11.9671 24C14.5973 24.0066 17.1551 23.1296 19.2263 21.5077L16.0899 18.3626C14.9721 19.2791 13.5386 19.734 11.9671 19.734Z" fill="#7FADF2"/>
</svg>