<svg xmlns="http://www.w3.org/2000/svg" width="24" height="24" viewBox="0 0 24 24" fill="none">
                        <g clip-path="url(#clip0)">
                            <path fill-rule="evenodd" clip-rule="evenodd"
                                d="M24 4.55627C23.1188 4.95002 22.1672 5.21252 21.1734 5.32971C22.1906 4.72033 22.9688 3.75471 23.3391 2.60627C22.3875 3.17346 21.3328 3.58127 20.2125 3.80158C19.3125 2.84533 18.0328 2.24533 16.6172 2.24533C13.8984 2.24533 11.6906 4.44846 11.6906 7.16721C11.6906 7.55158 11.7328 7.93127 11.8172 8.28752C7.72501 8.08127 4.09688 6.12189 1.66876 3.14064C1.24688 3.86721 1.00313 4.71564 1.00313 5.61564C1.00313 7.32189 1.87032 8.83127 3.19219 9.71252C2.38594 9.68439 1.62657 9.46408 0.960944 9.09846V9.15939C0.960944 11.5453 2.65782 13.5375 4.91251 13.9875C4.50001 14.1 4.06407 14.161 3.61407 14.161C3.29532 14.161 2.98594 14.1281 2.68594 14.0719C3.31407 16.0266 5.13282 17.4516 7.28438 17.4938C5.59688 18.8156 3.47344 19.5985 1.16719 19.5985C0.768756 19.5985 0.375006 19.575 -0.0093689 19.5328C2.17032 20.9297 4.75782 21.7453 7.53751 21.7453C16.5938 21.7453 21.5484 14.2406 21.5484 7.73439C21.5484 7.51877 21.5438 7.30783 21.5344 7.09689C22.5047 6.41252 23.3391 5.54533 24 4.55627Z"
                                fill="#1DA1F2" />
                        </g>
                        <defs>
                            <clipPath id="clip0">
                                <rect width="24" height="24" fill="white" />
                            </clipPath>
                        </defs>
                    </svg>